<?xml version="1.0" standalone="no"?>
<!DOCTYPE svg PUBLIC "-//W3C//DTD SVG 20010904//EN"
 "http://www.w3.org/TR/2001/REC-SVG-20010904/DTD/svg10.dtd">
<svg version="1.0" xmlns="http://www.w3.org/2000/svg"
 width="225.000000pt" height="225.000000pt" viewBox="0 0 225.000000 225.000000"
 preserveAspectRatio="xMidYMid meet">
<metadata>
Created by potrace 1.11, written by Peter Selinger 2001-2013
</metadata>
<g transform="translate(0.000000,225.000000) scale(0.100000,-0.100000)"
fill="#000000" stroke="none">
<path d="M995 2236 c-38 -6 -69 -16 -69 -21 1 -6 4 -30 8 -54 7 -45 7 -45 -13
-27 -20 18 -21 18 -56 -8 l-35 -27 20 -40 c19 -37 20 -40 3 -45 -174 -54 -307
-131 -430 -248 -150 -143 -246 -306 -296 -506 -30 -121 -30 -349 0 -470 80
-316 305 -584 593 -706 145 -61 237 -78 410 -78 137 0 166 3 252 26 123 34
209 74 313 143 206 137 356 348 423 595 22 83 26 115 26 255 1 144 -2 170 -27
258 -94 339 -331 596 -659 712 l-77 27 19 39 20 38 -35 27 c-35 26 -36 26 -56
8 -20 -18 -20 -18 -13 27 4 24 7 48 8 53 1 9 -23 15 -121 30 l-43 6 0 -40 c0
-41 -7 -49 -27 -29 -8 8 -13 8 -17 0 -14 -23 -26 -10 -26 29 0 26 -4 40 -12
39 -7 -1 -44 -7 -83 -13z m-171 -801 c9 -9 20 -35 26 -58 6 -23 15 -57 20 -74
l8 -33 -41 21 c-75 38 -107 67 -107 99 0 49 61 78 94 45z m674 -1 c14 -10 22
-26 22 -44 0 -32 -32 -61 -107 -99 l-41 -21 8 33 c5 17 14 51 20 74 18 70 52
90 98 57z m-750 -259 l57 -55 -55 -2 c-30 -1 -66 -2 -80 -3 -52 -3 -79 57 -43
97 29 32 61 22 121 -37z m874 38 c39 -35 11 -101 -42 -98 -14 1 -50 2 -80 3
l-55 2 57 55 c59 58 88 67 120 38z m-828 -261 c3 -5 -20 -30 -50 -57 -57 -49
-91 -59 -119 -35 -21 17 -19 76 3 89 21 13 159 14 166 3z m827 -2 c23 -13 26
-72 4 -90 -28 -24 -62 -14 -119 35 -30 27 -53 52 -50 57 7 12 142 10 165 -2z
m-763 -242 c-11 -40 -26 -79 -33 -87 -16 -17 -60 -18 -80 -1 -16 13 -20 57 -7
76 8 11 123 83 134 84 3 0 -3 -33 -14 -72z m586 35 c33 -20 64 -42 68 -47 13
-19 9 -63 -7 -76 -20 -17 -64 -16 -80 1 -14 15 -57 159 -48 159 3 0 33 -17 67
-37z"/>
</g>
</svg>
